<svg preserveAspectRatio="none" overflow="visible" style="display: block;" width="16" height="16" viewBox="0 0 16 16" fill="none" xmlns="http://www.w3.org/2000/svg">
<g id="SVG" clip-path="url(#clip0_0_46)">
<path id="Vector" d="M11.3333 13.3333H14.6667V12C14.6666 11.148 14.1268 10.3896 13.3218 10.1105C12.5169 9.83141 11.6234 10.0929 11.096 10.762M11.3333 13.3333H4.66667M11.3333 13.3333V12C11.3333 11.5627 11.2493 11.1447 11.096 10.762M4.66667 13.3333H1.33333V12C1.3334 11.148 1.87319 10.3896 2.67817 10.1105C3.48314 9.83141 4.37656 10.0929 4.904 10.762M4.66667 13.3333V12C4.66667 11.5627 4.75067 11.1447 4.904 10.762M4.904 10.762C5.41052 9.49618 6.6366 8.6662 8 8.6662C9.3634 8.6662 10.5895 9.49618 11.096 10.762M10 4.66667C10 5.7705 9.10383 6.66667 8 6.66667C6.89617 6.66667 6 5.7705 6 4.66667C6 3.56284 6.89617 2.66667 8 2.66667C9.10383 2.66667 10 3.56284 10 4.66667L11.3333 13.3333M15.3333 15.3333C15.3333 16.0692 14.7359 16.6667 14 16.6667C13.2641 16.6667 12.6667 16.0692 12.6667 15.3333C12.6667 14.5974 13.2641 14 14 14C14.7359 14 15.3333 14.5974 15.3333 15.3333V15.3333M4.66667 6.66667C4.66667 7.40255 4.06922 8 3.33333 8C2.59745 8 2 7.40255 2 6.66667C2 5.93078 2.59745 5.33333 3.33333 5.33333C4.06922 5.33333 4.66667 5.93078 4.66667 6.66667V6.66667" stroke="#059669" stroke-width="1.33333" stroke-linecap="round" stroke-linejoin="round"/>
</g>
<defs>
<clipPath id="clip0_0_46">
<rect width="16" height="16" fill="white"/>
</clipPath>
</defs>
</svg>
